<?xml version="1.0" encoding="UTF-8"?>
<svg id="Camada_1" xmlns="http://www.w3.org/2000/svg" version="1.1" xmlns:xlink="http://www.w3.org/1999/xlink" viewBox="0 0 841.9 595.3">
  <!-- Generator: Adobe Illustrator 29.3.1, SVG Export Plug-In . SVG Version: 2.1.0 Build 151)  -->
  <image width="482" height="79" transform="translate(133.1 82.2) scale(.2)" xlink:href="padrão fundo-1.png"/>
  <image width="482" height="79" transform="translate(381 82.2) scale(.2)" xlink:href="padrão fundo-2.png"/>
  <image width="482" height="79" transform="translate(628.9 82.2) scale(.2)" xlink:href="padrão fundo-3.png"/>
  <image width="473" height="162" transform="translate(32.8 29.8) scale(.1)" xlink:href="padrão fundo-4.png"/>
  <image width="473" height="162" transform="translate(271.5 28.9) scale(.1)" xlink:href="padrão fundo-5.png"/>
  <image width="473" height="162" transform="translate(510.2 28.9) scale(.1)" xlink:href="padrão fundo-6.png"/>
  <image width="473" height="162" transform="translate(748.9 28.9) scale(.1)" xlink:href="padrão fundo-7.png"/>
  <image width="482" height="79" transform="translate(133.1 176.2) scale(.2)" xlink:href="padrão fundo-8.png"/>
  <image width="482" height="79" transform="translate(381 176.2) scale(.2)" xlink:href="padrão fundo-9.png"/>
  <image width="482" height="79" transform="translate(628.9 176.2) scale(.2)" xlink:href="padrão fundo-10.png"/>
  <image width="473" height="162" transform="translate(32.8 123.8) scale(.1)" xlink:href="padrão fundo-11.png"/>
  <image width="473" height="162" transform="translate(271.5 122.8) scale(.1)" xlink:href="padrão fundo-12.png"/>
  <image width="473" height="162" transform="translate(510.2 122.8) scale(.1)" xlink:href="padrão fundo-13.png"/>
  <image width="473" height="162" transform="translate(748.9 122.8) scale(.1)" xlink:href="padrão fundo-14.png"/>
  <image width="482" height="79" transform="translate(124.6 270.2) scale(.2)" xlink:href="padrão fundo-15.png"/>
  <image width="482" height="79" transform="translate(372.5 270.2) scale(.2)" xlink:href="padrão fundo-16.png"/>
  <image width="482" height="79" transform="translate(620.4 270.2) scale(.2)" xlink:href="padrão fundo-17.png"/>
  <image width="473" height="162" transform="translate(24.3 217.8) scale(.1)" xlink:href="padrão fundo-18.png"/>
  <image width="473" height="162" transform="translate(263 216.8) scale(.1)" xlink:href="padrão fundo-19.png"/>
  <image width="473" height="162" transform="translate(501.7 216.8) scale(.1)" xlink:href="padrão fundo-20.png"/>
  <image width="473" height="162" transform="translate(740.4 216.8) scale(.1)" xlink:href="padrão fundo-21.png"/>
  <image width="482" height="79" transform="translate(124.6 364.2) scale(.2)" xlink:href="padrão fundo-22.png"/>
  <image width="482" height="79" transform="translate(372.5 364.2) scale(.2)" xlink:href="padrão fundo-23.png"/>
  <image width="482" height="79" transform="translate(620.4 364.2) scale(.2)" xlink:href="padrão fundo-24.png"/>
  <image width="473" height="162" transform="translate(24.3 311.8) scale(.1)" xlink:href="padrão fundo-25.png"/>
  <image width="473" height="162" transform="translate(263 310.8) scale(.1)" xlink:href="padrão fundo-26.png"/>
  <image width="473" height="162" transform="translate(501.7 310.8) scale(.1)" xlink:href="padrão fundo-27.png"/>
  <image width="473" height="162" transform="translate(740.4 310.8) scale(.1)" xlink:href="padrão fundo-28.png"/>
  <image width="482" height="79" transform="translate(133.1 458.2) scale(.2)" xlink:href="padrão fundo-29.png"/>
  <image width="482" height="79" transform="translate(381 458.2) scale(.2)" xlink:href="padrão fundo-30.png"/>
  <image width="482" height="79" transform="translate(628.9 458.2) scale(.2)" xlink:href="padrão fundo-31.png"/>
  <image width="473" height="162" transform="translate(32.8 405.8) scale(.1)" xlink:href="padrão fundo-32.png"/>
  <image width="473" height="162" transform="translate(271.5 404.8) scale(.1)" xlink:href="padrão fundo-33.png"/>
  <image width="473" height="162" transform="translate(510.2 404.8) scale(.1)" xlink:href="padrão fundo-34.png"/>
  <image width="473" height="162" transform="translate(748.9 404.8) scale(.1)" xlink:href="padrão fundo-35.png"/>
  <image width="482" height="79" transform="translate(124.6 552.2) scale(.2)" xlink:href="padrão fundo-36.png"/>
  <image width="482" height="79" transform="translate(372.5 552.2) scale(.2)" xlink:href="padrão fundo-37.png"/>
  <image width="482" height="79" transform="translate(620.4 552.2) scale(.2)" xlink:href="padrão fundo-38.png"/>
  <image width="473" height="162" transform="translate(24.3 499.8) scale(.1)" xlink:href="padrão fundo-39.png"/>
  <image width="473" height="162" transform="translate(263 498.8) scale(.1)" xlink:href="padrão fundo-40.png"/>
  <image width="473" height="162" transform="translate(501.7 498.8) scale(.1)" xlink:href="padrão fundo-41.png"/>
  <image width="473" height="162" transform="translate(740.4 498.8) scale(.1)" xlink:href="padrão fundo-42.png"/>
</svg>